PathFileType	4	(X/Y/Z)	 s02c0402.trc
DataRate	CameraRate	NumFrames	NumMarkers	Units	OrigDataRate	OrigDataStartFrame	OrigNumFrames
200	200	5	50	mm	200	251	2000
Frame#	Time	racr			lacr			c7			jug			rlel			rdr			llel			ldr			s2			lic			ric			lasi			rasi			rpsi			lpsi			rgt			lgt			rth1			rth2			rth3			rth4			rlfc			rmfc			rsh1			rsh2			rsh3			rsh4			rlmal			rmmal			rtoe			rmt5			rmt1			lth1			lth2			lth4			lth3			llfc			lmfc			lsh1			lsh2			lsh3			lsh4			llmal			lmmal			lcal			ltoe			lmt5			SBIKE			LBIKE			RBIKE			
		X1	Y1	Z1	X2	Y2	Z2	X3	Y3	Z3	X4	Y4	Z4	X5	Y5	Z5	X6	Y6	Z6	X7	Y7	Z7	X8	Y8	Z8	X9	Y9	Z9	X10	Y10	Z10	X11	Y11	Z11	X12	Y12	Z12	X13	Y13	Z13	X14	Y14	Z14	X15	Y15	Z15	X16	Y16	Z16	X17	Y17	Z17	X18	Y18	Z18	X19	Y19	Z19	X20	Y20	Z20	X21	Y21	Z21	X22	Y22	Z22	X23	Y23	Z23	X24	Y24	Z24	X25	Y25	Z25	X26	Y26	Z26	X27	Y27	Z27	X28	Y28	Z28	X29	Y29	Z29	X30	Y30	Z30	X31	Y31	Z31	X32	Y32	Z32	X33	Y33	Z33	X34	Y34	Z34	X35	Y35	Z35	X36	Y36	Z36	X37	Y37	Z37	X38	Y38	Z38	X39	Y39	Z39	X40	Y40	Z40	X41	Y41	Z41	X42	Y42	Z42	X43	Y43	Z43	X44	Y44	Z44	X45	Y45	Z45	X46	Y46	Z46	X47	Y47	Z47	X48	Y48	Z48	X49	Y49	Z49	X50	Y50	Z50	
251	1.2550	460.774510	1317.019764	-133.472879	470.961362	1325.367577	-490.711327	481.824876	1364.823720	-317.341232	431.792447	1237.647800	-312.814527	583.972396	1073.207527	-107.165000	723.221865	890.115184	-108.577239	568.544166	1067.474017	-528.299888	705.598149	887.687393	-501.833365	1.499978	1095.698003	-318.046195	148.352640	1096.460221	-453.894517	126.133474	1117.297699	-175.520214	197.671399	1068.772173	-425.991216	177.747938	1082.961117	-193.728906	17.633325	1140.657892	-278.991144	27.132597	1144.509123	-364.557159	109.981088	1037.864033	-125.942882	97.870585	1001.706663	-484.703667	195.223543	1009.384394	-125.375096	282.767625	1000.400525	-133.826363	355.304694	960.292632	-110.786370	292.024697	1023.353581	-162.754865	476.433088	872.457906	-144.926954	471.457557	853.868501	-257.308545	456.555310	761.297586	-129.906437	436.540571	675.528794	-149.629874	384.174275	608.365660	-143.097781	451.081088	672.184750	-185.694678	322.513014	503.977930	-149.594349	331.433432	525.650460	-230.164868	535.561739	453.762425	-184.800516	426.717872	433.311436	-129.420216	455.089100	449.028781	-237.164618	201.190482	904.789453	-499.704079	267.187415	847.892024	-497.399749	294.292148	866.344867	-480.221623	294.293338	762.939414	-496.917613	344.728291	674.687519	-475.157840	344.674798	644.943297	-370.573496	292.497284	584.391546	-495.646880	259.017205	505.917780	-479.974138	188.359232	450.189435	-484.201758	275.681925	496.680971	-443.577402	111.613511	377.365732	-467.889787	126.822988	365.388645	-391.690482	31.918648	362.313895	-429.450832	266.072845	196.735693	-439.817210	163.990795	234.983484	-498.258819	-162.884064	859.872276	-310.396960	37.136262	86.469533	-514.265229	33.400614	83.283223	-114.239133	
252	1.2600	460.779249	1317.028932	-133.532952	470.937675	1325.350494	-490.762003	481.830524	1364.800414	-317.370588	431.819684	1237.667482	-312.891191	583.965682	1073.213058	-107.142893	723.221641	890.109044	-108.559820	568.509980	1067.471302	-528.322384	705.599167	887.681072	-501.817793	1.494100	1095.684569	-318.025701	148.326001	1096.451354	-453.928361	126.144364	1117.317902	-175.533879	197.667504	1068.758168	-426.023787	177.751475	1082.995752	-193.743886	17.627581	1140.664504	-278.985182	27.141557	1144.505842	-364.611647	109.980591	1037.887574	-125.940790	97.844800	1001.699533	-484.714635	195.232772	1009.393254	-125.373373	282.771164	1000.402289	-133.835452	355.304690	960.310277	-110.785713	292.030611	1023.370907	-162.761572	476.445747	872.461070	-144.947846	471.457744	853.870917	-257.309603	456.554414	761.319296	-129.900090	436.532030	675.545668	-149.643512	384.157517	608.372679	-143.095515	451.075359	672.184805	-185.682993	322.499814	504.004732	-149.600097	331.395233	525.675881	-230.193319	535.549809	453.784959	-184.792119	426.693478	433.339939	-129.422772	455.076841	449.050466	-237.159622	201.150609	904.778684	-499.722704	267.146175	847.891210	-497.425355	294.248657	866.345590	-480.250210	294.247126	762.926354	-496.938987	344.707079	674.692391	-475.176175	344.661344	644.957826	-370.579120	292.476038	584.390975	-495.671593	259.019300	505.906495	-479.992927	188.352926	450.153354	-484.218460	275.664741	496.680217	-443.587987	111.638193	377.333582	-467.890441	126.832598	365.374764	-391.686196	31.937605	362.260032	-429.423354	266.085857	196.686819	-439.794927	164.005228	234.956241	-498.267285	-162.882008	858.920807	-313.307151	37.140582	86.472094	-514.278230	33.395269	83.280560	-114.241326	
253	1.2650	460.776238	1317.022954	-133.559509	470.935712	1325.339120	-490.815180	481.834629	1364.793571	-317.422144	431.842316	1237.639413	-312.913918	583.974136	1073.205351	-107.136812	723.232153	890.087823	-108.532000	568.492885	1067.450988	-528.371513	705.575884	887.662936	-501.797185	1.485105	1095.688849	-318.040226	148.311500	1096.446565	-453.929522	126.146931	1117.354881	-175.536676	197.645699	1068.734335	-426.037311	177.745441	1083.002679	-193.789508	17.625994	1140.674626	-278.988870	27.100862	1144.517019	-364.575666	109.990251	1037.906894	-125.937530	97.821348	1001.686819	-484.714702	195.231903	1009.410074	-125.373924	282.772527	1000.432903	-133.822868	355.320991	960.311016	-110.771442	292.028329	1023.382931	-162.763320	476.432589	872.462299	-144.943735	471.453920	853.879610	-257.327130	456.538716	761.335263	-129.891700	436.498314	675.566422	-149.649016	384.113495	608.398492	-143.098210	451.038304	672.203819	-185.689101	322.452721	504.027178	-149.580892	331.357469	525.709979	-230.195720	535.521288	453.841811	-184.810685	426.663006	433.350499	-129.444315	455.025868	449.072726	-237.153692	201.111463	904.766443	-499.727247	267.102299	847.889670	-497.454297	294.212173	866.342341	-480.268895	294.213122	762.915907	-496.961840	344.672282	674.689022	-475.200306	344.639225	644.956974	-370.598170	292.481618	584.383490	-495.706054	259.009480	505.876004	-480.005003	188.386262	450.137115	-484.236185	275.684593	496.663647	-443.607611	111.691372	377.286528	-467.916642	126.889002	365.352435	-391.688905	31.978822	362.248764	-429.441296	266.122219	196.648007	-439.800800	164.028218	234.917021	-498.252688	-162.854371	858.951818	-313.214644	37.131947	86.482250	-514.289408	32.911523	83.735136	-114.231882	
254	1.2700	460.776097	1317.014083	-133.606018	470.922721	1325.329663	-490.853131	481.834362	1364.775076	-317.458539	431.826255	1237.655338	-312.944524	583.994156	1073.226397	-107.129929	723.247416	890.106673	-108.531447	568.486580	1067.456331	-528.420301	705.569354	887.646486	-501.771508	1.475780	1095.703866	-318.021342	148.291460	1096.443339	-453.921393	126.146760	1117.359055	-175.550013	197.625313	1068.724372	-426.058146	177.741797	1083.029941	-193.799394	17.619300	1140.700076	-278.985153	27.115659	1144.503130	-364.606088	110.017631	1037.911555	-125.943514	97.791076	1001.689624	-484.711893	195.227866	1009.422209	-125.367904	282.751892	1000.441961	-133.814200	355.300297	960.320513	-110.768424	292.032297	1023.382572	-162.743232	476.431119	872.473154	-144.944275	471.453522	853.898186	-257.326022	456.516658	761.348770	-129.885144	436.490205	675.570293	-149.644896	384.079633	608.410333	-143.099872	451.009218	672.235092	-185.713245	322.415708	504.044818	-149.599129	331.294615	525.729526	-230.198880	535.484148	453.901772	-184.803928	426.623576	433.394627	-129.424381	454.974411	449.111215	-237.149774	201.096601	904.770311	-499.742337	267.076738	847.885543	-497.459228	294.184128	866.341872	-480.274078	294.191393	762.928401	-496.975412	344.672551	674.704785	-475.229125	344.652682	644.992857	-370.622837	292.479814	584.394110	-495.722046	259.054966	505.879543	-480.005163	188.328149	450.187851	-484.166134	275.723714	496.671190	-443.633765	111.773257	377.250049	-467.907667	126.950371	365.313537	-391.707196	32.057300	362.241353	-429.448586	266.143748	196.569265	-439.812719	164.080614	234.856121	-498.260591	-162.936271	859.768151	-310.699055	37.135839	86.469784	-514.277390	32.918648	83.736467	-114.232235	
255	1.2750	460.782061	1317.013119	-133.644020	470.910862	1325.329826	-490.893505	481.857631	1364.756366	-317.503321	431.849232	1237.626376	-312.967215	584.003576	1073.220685	-107.178178	723.249584	890.095218	-108.501980	568.478828	1067.428755	-528.461145	705.566847	887.627739	-501.762905	1.468488	1095.704056	-318.011405	148.284424	1096.429109	-453.912470	126.169494	1117.367028	-175.550832	197.616787	1068.728079	-426.063987	177.750584	1083.056743	-193.817102	17.621667	1140.699891	-278.986221	27.094514	1144.504259	-364.618079	109.998944	1037.919793	-125.935781	97.752781	1001.698205	-484.718116	195.228238	1009.428520	-125.365689	282.762343	1000.450298	-133.823858	355.296652	960.331912	-110.760253	292.040244	1023.390066	-162.768993	476.428750	872.502463	-144.948979	471.450730	853.906895	-257.351415	456.492673	761.361769	-129.891861	436.444974	675.590069	-149.662612	384.045500	608.425037	-143.112659	451.000214	672.245277	-185.690541	322.352995	504.096211	-149.588929	331.260699	525.791114	-230.216422	535.448943	453.982285	-184.804023	426.569776	433.432729	-129.423583	454.950135	449.148594	-237.148576	201.060326	904.780857	-499.754404	267.069562	847.955931	-497.468970	294.162729	866.372393	-480.262380	294.196842	762.948542	-496.986887	344.679429	674.740231	-475.240415	344.648172	645.019221	-370.640537	292.504892	584.418130	-495.724122	259.094826	505.888282	-480.024891	188.395097	450.149670	-484.176243	275.792698	496.699461	-443.675854	111.863800	377.229167	-467.917565	127.028097	365.275938	-391.706068	32.158099	362.258863	-429.486433	266.190963	196.413163	-439.798043	164.128449	234.800246	-498.249554	-162.884470	859.836975	-310.397897	37.137639	86.479353	-514.279532	33.379056	83.339499	-114.209616	
